<?xml version="1.0" encoding="utf-8"?>
<!-- Generator: Adobe Illustrator 28.0.0, SVG Export Plug-In . SVG Version: 6.00 Build 0)  -->
<svg version="1.1" id="Layer_1" xmlns="http://www.w3.org/2000/svg" xmlns:xlink="http://www.w3.org/1999/xlink" x="0px" y="0px"
	 viewBox="0 0 20 20" style="enable-background:new 0 0 20 20;" xml:space="preserve">
<style type="text/css">
	.st0{fill:#214497;}
</style>
<g>
	<path class="st0" d="M12.74,3.26c-0.02,0.14-0.03,0.27-0.04,0.41c-0.16,1.74-0.5,3.29-1.04,4.66c-0.36,0.91-0.82,1.76-1.37,2.56
		c-1.32,1.78-2.9,2.67-4.74,2.66c-0.88-0.04-1.63-0.34-2.23-0.91c-0.62-0.57-0.94-1.37-0.97-2.41c0-1.66,0.5-3.47,1.53-5.45
		l0.31-0.6c0.04-0.01,0.05,0.05,0.04,0.19C4.2,4.52,4.14,4.71,4.04,4.97c-0.12,0.3-0.25,0.61-0.37,0.92S3.44,6.51,3.35,6.82
		c-0.09,0.3-0.16,0.61-0.21,0.9S3.06,8.3,3.08,8.57c0.11,0.81,0.45,1.41,1.04,1.79c0.59,0.38,1.27,0.59,2.06,0.61
		c1.06,0.01,2.07-0.27,3.04-0.83c0.73-0.48,1.31-1.09,1.75-1.81c0.72-0.98,1.03-2.32,0.92-4.03c0-0.36,0.03-0.68,0.11-0.97
		c0.08-0.29,0.31-0.93,0.69-1.92c0.08-0.23,0.15-0.37,0.19-0.42c0.05-0.05,0.08-0.05,0.11-0.03c0.02,0.03,0.02,0.11-0.01,0.24
		l-0.12,0.85L12.74,3.26z M9.12,5.24C9.15,5.39,9.14,5.54,9.1,5.7C9.05,5.86,8.97,6.04,8.85,6.23C8.77,6.35,8.7,6.45,8.64,6.54
		C8.57,6.63,8.51,6.71,8.45,6.78S8.32,6.91,8.25,6.97C8.19,7.03,8.11,7.09,8.03,7.16C8,7.18,7.98,7.2,7.96,7.21
		c-0.02,0-0.04,0.01-0.05,0.01c-0.08,0-0.14-0.03-0.16-0.07C7.7,7.08,7.62,7,7.53,6.91C7.43,6.82,7.31,6.72,7.17,6.6L6.49,6.06
		C6.44,6.02,6.43,5.97,6.45,5.93s0.03-0.07,0.04-0.09c0.17-0.31,0.36-0.63,0.56-0.96c0.2-0.33,0.38-0.63,0.55-0.9
		c0.03-0.04,0.05-0.08,0.06-0.1c0.02-0.02,0.03-0.03,0.05-0.04c0.02,0,0.03,0,0.06,0.02c0.02,0.02,0.05,0.03,0.1,0.06
		C7.97,4,8.09,4.09,8.22,4.18s0.27,0.2,0.41,0.33C8.9,4.75,9.06,4.99,9.12,5.24z"/>
	<path class="st0" d="M7.05,13.94c-0.04,0.54-0.16,1-0.36,1.38c-0.2,0.38-0.43,0.57-0.68,0.57c0-0.21,0.07-0.85,0.2-1.92
		s0.23-1.84,0.3-2.3c0.07-0.46,0.15-0.95,0.23-1.47c0.09-0.52,0.17-0.94,0.25-1.26c0.09-0.27,0.19-0.53,0.3-0.8
		c0.11-0.27,0.21-0.54,0.33-0.8c0.08-0.12,0.12-0.1,0.15,0.06c-0.14,0.9-0.26,1.83-0.37,2.8s-0.19,1.66-0.23,2.07
		c-0.04,0.42-0.06,0.66-0.06,0.73C7.07,13.43,7.05,13.75,7.05,13.94z"/>
	<path class="st0" d="M7.05,14.37c0,0.54,0.11,0.94,0.32,1.21c0.21,0.27,0.45,0.41,0.73,0.41c0.05-0.02,0.13-0.19,0.25-0.54
		c0.12-0.34,0.21-0.6,0.3-0.78c0.24,0.05,0.41,0.16,0.52,0.34c0.11,0.18,0.16,0.36,0.18,0.54c0,0.62-0.13,1.22-0.38,1.8
		c-0.37,0.78-0.86,1.17-1.48,1.17c-0.36,0-0.69-0.21-1-0.62s-0.47-1.09-0.47-2.03c0.05-0.19,0.11-0.38,0.18-0.56
		c0.06-0.19,0.13-0.36,0.21-0.54c0.08-0.17,0.17-0.33,0.28-0.47c0.11-0.14,0.23-0.27,0.39-0.37L7.05,14.37L7.05,14.37z"/>
	<path class="st0" d="M13.65,15.41c-0.33,0.79-0.6,1.35-0.82,1.69c-0.22,0.34-0.41,0.57-0.56,0.7c-0.16,0.12-0.38,0.23-0.67,0.34
		c-0.29,0.1-0.6,0.19-0.92,0.27c-0.33,0.08-0.57,0.12-0.72,0.12c-0.06,0-0.1,0-0.1-0.01c-0.04-0.05,0.18-0.24,0.67-0.55
		c0.49-0.31,0.89-0.59,1.21-0.85c0.32-0.25,0.61-0.53,0.86-0.84c0.25-0.3,0.43-0.62,0.54-0.95c-0.06,0.03-0.13,0.05-0.22,0.08
		s-0.18,0.04-0.27,0.06s-0.18,0.02-0.27,0.03c-0.09,0-0.16,0-0.23-0.01c-0.31-0.02-0.56-0.12-0.77-0.31s-0.3-0.42-0.29-0.69
		c0.02-0.14,0.05-0.3,0.11-0.48c0.06-0.18,0.18-0.48,0.37-0.87c0.19-0.4,0.4-0.73,0.62-0.99s0.43-0.39,0.63-0.39
		c0.33,0,0.61,0.14,0.84,0.43c0.22,0.28,0.36,0.63,0.4,1.03c0.01,0.2,0.01,0.4-0.01,0.6c-0.02,0.2-0.04,0.37-0.07,0.5
		c-0.03,0.13-0.07,0.3-0.13,0.51C13.78,15.04,13.72,15.24,13.65,15.41z"/>
	<path class="st0" d="M13.37,14.67c0-0.05-0.04-0.27-0.12-0.64c-0.02-0.11-0.03-0.22-0.03-0.33c0-0.19,0.19-0.36,0.56-0.49
		c0.31-0.13,0.55-0.27,0.73-0.42c0.18-0.15,0.28-0.3,0.3-0.45c0.03-0.12,0.03-0.23,0.03-0.34c-0.01-0.11-0.03-0.22-0.04-0.35
		c-0.02-0.13-0.03-0.26-0.03-0.38c0-0.12,0.01-0.21,0.03-0.28c0.02-0.1,0.27-0.86,0.76-2.28c0.05-0.08,0.09-0.08,0.14,0
		c0.03,0.05,0.04,0.15,0.04,0.29l-0.03,1.92c-0.02,0.69-0.18,1.34-0.48,1.96s-0.58,1.08-0.85,1.39c-0.27,0.31-0.47,0.51-0.6,0.61
		C13.55,15.19,13.41,15.13,13.37,14.67z M15.85,3.27c0,0.02,0,0.04,0.01,0.05c0,0.02,0,0.03,0.01,0.04c0,0.01,0,0.02,0,0.04
		c0,0.01,0,0.03,0,0.04v0.11c0,0.01,0,0.02,0,0.04c0,0.01,0,0.03,0,0.04l-0.03,0.1c0,0.01,0,0.02,0,0.03c0,0,0,0.01,0,0.03
		l-0.03,0.1c-0.01,0.02-0.02,0.04-0.03,0.06c-0.01,0.02-0.02,0.04-0.03,0.06c0,0,0,0.01,0,0.01c0,0,0,0.01,0,0.01L15.7,4.09
		c-0.01,0.03-0.03,0.05-0.04,0.07s-0.03,0.04-0.04,0.06C15.6,4.23,15.6,4.24,15.6,4.24l-0.1,0.15l-0.04,0.06
		c-0.01,0.01-0.02,0.03-0.03,0.04c-0.01,0.02-0.02,0.03-0.03,0.04c-0.02,0.03-0.04,0.06-0.06,0.07l-0.13,0.16
		c-0.01,0.01-0.02,0.02-0.02,0.03c-0.01,0.01-0.02,0.03-0.04,0.04s-0.03,0.03-0.04,0.04l-0.05,0.05c-0.02,0.03-0.04,0.05-0.06,0.06
		l-0.08,0.08L14.89,5.1c-0.06,0.05-0.11,0.08-0.15,0.1l-0.05,0.02h-0.06c-0.04,0-0.08-0.02-0.11-0.05
		c-0.12-0.09-0.23-0.19-0.34-0.28c-0.11-0.1-0.23-0.19-0.35-0.28c-0.04-0.03-0.08-0.06-0.11-0.09c-0.11-0.09-0.22-0.16-0.33-0.24
		c0,0-0.01,0-0.01-0.01c-0.03-0.03-0.04-0.05-0.04-0.07c0-0.02,0.01-0.05,0.04-0.1L14.6,2.2c0,0,0-0.01,0.01-0.02
		c0.04-0.05,0.08-0.07,0.12-0.06l0.02,0.01c0,0,0.01,0,0.02,0.01l0.06,0.03c0.01,0.01,0.02,0.02,0.03,0.02
		c0.01,0,0.02,0.01,0.03,0.02c0.01,0,0.02,0.01,0.03,0.02c0.01,0,0.02,0.01,0.03,0.03c0.02,0.01,0.04,0.03,0.06,0.04
		c0.03,0.02,0.06,0.04,0.1,0.06c0.03,0.02,0.06,0.04,0.1,0.07l0.03,0.03c0.09,0.06,0.18,0.14,0.27,0.24l0.1,0.11l0.07,0.1
		c0.04,0.05,0.07,0.11,0.09,0.16c0.01,0.02,0.02,0.04,0.03,0.07l0.03,0.07c0,0,0.01,0.01,0.01,0.02c0,0,0,0.01,0.01,0.03
		C15.85,3.25,15.85,3.26,15.85,3.27z M18.34,3.11c0.04,0.15,0.04,0.31,0,0.47c-0.05,0.16-0.12,0.33-0.24,0.5
		C18,4.23,17.91,4.36,17.81,4.48c-0.09,0.12-0.2,0.24-0.31,0.34c-0.07,0.08-0.13,0.13-0.19,0.16s-0.1,0.05-0.14,0.06
		c-0.04,0.01-0.07,0.01-0.1,0C17.05,5.03,17.03,5.02,17.01,5c-0.19-0.15-0.37-0.3-0.56-0.46c-0.18-0.15-0.38-0.3-0.6-0.43
		c-0.03-0.04-0.04-0.07-0.04-0.09s0.01-0.05,0.04-0.09l1.23-1.9c0.04-0.05,0.07-0.07,0.11-0.07c0.03,0,0.07,0.02,0.12,0.04
		c0.11,0.06,0.22,0.13,0.33,0.21c0.11,0.07,0.21,0.15,0.3,0.25c0.09,0.09,0.17,0.19,0.24,0.3C18.26,2.86,18.31,2.98,18.34,3.11z"/>
</g>
</svg>
